<svg width="1920" height="1503" viewBox="0 0 1920 1503" fill="none" xmlns="http://www.w3.org/2000/svg">
<g clip-path="url(#clip0_20_124)">
<rect width="1920" height="1503" fill="#0D0D0D"/>
<mask id="path-1-outside-1_20_124" maskUnits="userSpaceOnUse" x="59" y="-177" width="227" height="1706" fill="black">
<rect fill="white" x="59" y="-177" width="227" height="1706"/>
<path d="M285 1437.07C285 1453.07 282.2 1467.52 276.6 1480.42C270.9 1493.22 262.8 1503.77 252.3 1512.07C241.7 1520.27 229.1 1525.47 214.5 1527.67L208.2 1485.07C220.6 1482.07 230.15 1475.87 236.85 1466.47C243.55 1457.07 246.9 1446.37 246.9 1434.37C246.9 1427.67 245.85 1421.17 243.75 1414.87C241.65 1408.57 238.55 1403.42 234.45 1399.42C230.35 1395.32 225.3 1393.27 219.3 1393.27C217.1 1393.27 215 1393.62 213 1394.32C210.9 1394.92 208.95 1395.97 207.15 1397.47C205.35 1398.97 203.65 1401.12 202.05 1403.92C200.45 1406.62 199 1410.07 197.7 1414.27L181.2 1470.37C180 1474.57 178.3 1479.47 176.1 1485.07C173.9 1490.57 170.75 1495.92 166.65 1501.12C162.55 1506.32 157.15 1510.67 150.45 1514.17C143.65 1517.57 135.1 1519.27 124.8 1519.27C110.3 1519.27 98.25 1515.62 88.65 1508.32C79.05 1501.02 71.9 1491.27 67.2 1479.07C62.5 1466.87 60.2 1453.37 60.3 1438.57C60.5 1423.67 63.05 1410.37 67.95 1398.67C72.85 1386.97 80 1377.17 89.4 1369.27C98.7 1361.37 110.1 1355.67 123.6 1352.17L131.1 1396.27C124.1 1397.87 118.2 1400.82 113.4 1405.12C108.6 1409.42 104.95 1414.57 102.45 1420.57C99.95 1426.47 98.6 1432.67 98.4 1439.17C98.2 1445.57 99.1 1451.62 101.1 1457.32C103 1462.92 105.8 1467.52 109.5 1471.12C113.2 1474.62 117.6 1476.37 122.7 1476.37C127.4 1476.37 131.25 1474.92 134.25 1472.02C137.15 1469.12 139.5 1465.47 141.3 1461.07C143.1 1456.67 144.6 1452.17 145.8 1447.57L156 1410.07C157.5 1404.47 159.5 1398.27 162 1391.47C164.4 1384.67 167.8 1378.17 172.2 1371.97C176.5 1365.67 182.2 1360.52 189.3 1356.52C196.4 1352.42 205.4 1350.37 216.3 1350.37C227.9 1350.37 238.05 1352.82 246.75 1357.72C255.35 1362.52 262.5 1369.02 268.2 1377.22C273.8 1385.42 278 1394.72 280.8 1405.12C283.6 1415.42 285 1426.07 285 1437.07ZM285 1224.7C285 1246.3 280.3 1264.95 270.9 1280.65C261.5 1296.25 248.35 1308.3 231.45 1316.8C214.55 1325.2 194.9 1329.4 172.5 1329.4C150.1 1329.4 130.45 1325.2 113.55 1316.8C96.65 1308.3 83.5 1296.25 74.1 1280.65C64.7 1264.95 60 1246.3 60 1224.7C60 1203.1 64.7 1184.5 74.1 1168.9C83.5 1153.2 96.65 1141.15 113.55 1132.75C130.45 1124.25 150.1 1120 172.5 1120C194.9 1120 214.55 1124.25 231.45 1132.75C248.35 1141.15 261.5 1153.2 270.9 1168.9C280.3 1184.5 285 1203.1 285 1224.7ZM246.6 1224.7C246.8 1211 243.85 1199.6 237.75 1190.5C231.65 1181.4 223 1174.6 211.8 1170.1C200.6 1165.5 187.5 1163.2 172.5 1163.2C157.5 1163.2 144.5 1165.5 133.5 1170.1C122.5 1174.6 113.95 1181.4 107.85 1190.5C101.75 1199.6 98.6 1211 98.4 1224.7C98.2 1238.4 101.15 1249.8 107.25 1258.9C113.35 1268 122 1274.85 133.2 1279.45C144.4 1283.95 157.5 1286.2 172.5 1286.2C187.5 1286.2 200.5 1283.95 211.5 1279.45C222.5 1274.85 231.05 1268 237.15 1258.9C243.25 1249.8 246.4 1238.4 246.6 1224.7ZM280.5 1087.05H64.5L64.5 1046.25H242.4L242.4 953.254H280.5V1087.05ZM285 839.849C285 857.249 281.5 872.549 274.5 885.749C267.4 898.949 257.45 909.249 244.65 916.649C231.85 924.049 216.8 927.749 199.5 927.749H64.8L64.5 886.349H199.2C206.3 886.349 212.75 885.149 218.55 882.749C224.35 880.349 229.35 877.049 233.55 872.849C237.75 868.549 241 863.599 243.3 857.999C245.5 852.299 246.6 846.249 246.6 839.849C246.6 833.249 245.45 827.149 243.15 821.549C240.85 815.849 237.6 810.899 233.4 806.699C229.2 802.499 224.2 799.249 218.4 796.949C212.6 794.549 206.2 793.349 199.2 793.349H64.5L64.5 751.949H199.5C216.8 751.949 231.85 755.649 244.65 763.049C257.45 770.449 267.4 780.749 274.5 793.949C281.5 807.149 285 822.449 285 839.849ZM280.5 659.973H102.6L102.6 728.073L64.5 728.073L64.5 551.073H102.6V619.173H280.5V659.973ZM280.5 523.968H64.5L64.5 483.168H280.5V523.968ZM285 345.498C285 367.098 280.3 385.748 270.9 401.448C261.5 417.048 248.35 429.098 231.45 437.598C214.55 445.998 194.9 450.198 172.5 450.198C150.1 450.198 130.45 445.998 113.55 437.598C96.65 429.098 83.5 417.048 74.1 401.448C64.7 385.748 60 367.098 60 345.498C60 323.898 64.7 305.298 74.1 289.698C83.5 273.998 96.65 261.948 113.55 253.548C130.45 245.048 150.1 240.798 172.5 240.798C194.9 240.798 214.55 245.048 231.45 253.548C248.35 261.948 261.5 273.998 270.9 289.698C280.3 305.298 285 323.898 285 345.498ZM246.6 345.498C246.8 331.798 243.85 320.398 237.75 311.298C231.65 302.198 223 295.398 211.8 290.898C200.6 286.298 187.5 283.998 172.5 283.998C157.5 283.998 144.5 286.298 133.5 290.898C122.5 295.398 113.95 302.198 107.85 311.298C101.75 320.398 98.6 331.798 98.4 345.498C98.2 359.198 101.15 370.598 107.25 379.698C113.35 388.798 122 395.648 133.2 400.248C144.4 404.748 157.5 406.998 172.5 406.998C187.5 406.998 200.5 404.748 211.5 400.248C222.5 395.648 231.05 388.798 237.15 379.698C243.25 370.598 246.4 359.198 246.6 345.498ZM280.5 210.855H64.5L64.5 169.455L208.5 75.5547L64.5 75.5547L64.5 34.1547L280.5 34.1547L280.5 75.5547L136.5 169.455L280.5 169.455V210.855ZM285 -89.3C285 -73.3 282.2 -58.85 276.6 -45.95C270.9 -33.15 262.8 -22.6 252.3 -14.3C241.7 -6.09999 229.1 -0.899982 214.5 1.30002L208.2 -41.3C220.6 -44.3 230.15 -50.5 236.85 -59.9C243.55 -69.3 246.9 -80 246.9 -92C246.9 -98.7 245.85 -105.2 243.75 -111.5C241.65 -117.8 238.55 -122.95 234.45 -126.95C230.35 -131.05 225.3 -133.1 219.3 -133.1C217.1 -133.1 215 -132.75 213 -132.05C210.9 -131.45 208.95 -130.4 207.15 -128.9C205.35 -127.4 203.65 -125.25 202.05 -122.45C200.45 -119.75 199 -116.3 197.7 -112.1L181.2 -56C180 -51.8 178.3 -46.9 176.1 -41.3C173.9 -35.8 170.75 -30.45 166.65 -25.25C162.55 -20.05 157.15 -15.7 150.45 -12.2C143.65 -8.79998 135.1 -7.09999 124.8 -7.09999C110.3 -7.09999 98.25 -10.75 88.65 -18.05C79.05 -25.35 71.9 -35.1 67.2 -47.3C62.5 -59.5 60.2 -73 60.3 -87.8C60.5 -102.7 63.05 -116 67.95 -127.7C72.85 -139.4 80 -149.2 89.4 -157.1C98.7 -165 110.1 -170.7 123.6 -174.2L131.1 -130.1C124.1 -128.5 118.2 -125.55 113.4 -121.25C108.6 -116.95 104.95 -111.8 102.45 -105.8C99.95 -99.9 98.6 -93.7 98.4 -87.2C98.2 -80.8 99.1 -74.75 101.1 -69.05C103 -63.45 105.8 -58.85 109.5 -55.25C113.2 -51.75 117.6 -50 122.7 -50C127.4 -50 131.25 -51.45 134.25 -54.35C137.15 -57.25 139.5 -60.9 141.3 -65.3C143.1 -69.7 144.6 -74.2 145.8 -78.8L156 -116.3C157.5 -121.9 159.5 -128.1 162 -134.9C164.4 -141.7 167.8 -148.2 172.2 -154.4C176.5 -160.7 182.2 -165.85 189.3 -169.85C196.4 -173.95 205.4 -176 216.3 -176C227.9 -176 238.05 -173.55 246.75 -168.65C255.35 -163.85 262.5 -157.35 268.2 -149.15C273.8 -140.95 278 -131.65 280.8 -121.25C283.6 -110.95 285 -100.3 285 -89.3Z"/>
</mask>
<path d="M285 1437.07C285 1453.07 282.2 1467.52 276.6 1480.42C270.9 1493.22 262.8 1503.77 252.3 1512.07C241.7 1520.27 229.1 1525.47 214.5 1527.67L208.2 1485.07C220.6 1482.07 230.15 1475.87 236.85 1466.47C243.55 1457.07 246.9 1446.37 246.9 1434.37C246.9 1427.67 245.85 1421.17 243.75 1414.87C241.65 1408.57 238.55 1403.42 234.45 1399.42C230.35 1395.32 225.3 1393.27 219.3 1393.27C217.1 1393.27 215 1393.62 213 1394.32C210.9 1394.92 208.95 1395.97 207.15 1397.47C205.35 1398.97 203.65 1401.12 202.05 1403.92C200.45 1406.62 199 1410.07 197.7 1414.27L181.2 1470.37C180 1474.57 178.3 1479.47 176.1 1485.07C173.9 1490.57 170.75 1495.92 166.65 1501.12C162.55 1506.32 157.15 1510.67 150.45 1514.17C143.65 1517.57 135.1 1519.27 124.8 1519.27C110.3 1519.27 98.25 1515.62 88.65 1508.32C79.05 1501.02 71.9 1491.27 67.2 1479.07C62.5 1466.87 60.2 1453.37 60.3 1438.57C60.5 1423.67 63.05 1410.37 67.95 1398.67C72.85 1386.97 80 1377.17 89.4 1369.27C98.7 1361.37 110.1 1355.67 123.6 1352.17L131.1 1396.27C124.1 1397.87 118.2 1400.82 113.4 1405.12C108.6 1409.42 104.95 1414.57 102.45 1420.57C99.95 1426.47 98.6 1432.67 98.4 1439.17C98.2 1445.57 99.1 1451.62 101.1 1457.32C103 1462.92 105.8 1467.52 109.5 1471.12C113.2 1474.62 117.6 1476.37 122.7 1476.37C127.4 1476.37 131.25 1474.92 134.25 1472.02C137.15 1469.12 139.5 1465.47 141.3 1461.07C143.1 1456.67 144.6 1452.17 145.8 1447.57L156 1410.07C157.5 1404.47 159.5 1398.27 162 1391.47C164.4 1384.67 167.8 1378.17 172.2 1371.97C176.5 1365.67 182.2 1360.52 189.3 1356.52C196.4 1352.42 205.4 1350.37 216.3 1350.37C227.9 1350.37 238.05 1352.82 246.75 1357.72C255.35 1362.52 262.5 1369.02 268.2 1377.22C273.8 1385.42 278 1394.72 280.8 1405.12C283.6 1415.42 285 1426.07 285 1437.07ZM285 1224.7C285 1246.3 280.3 1264.95 270.9 1280.65C261.5 1296.25 248.35 1308.3 231.45 1316.8C214.55 1325.2 194.9 1329.4 172.5 1329.4C150.1 1329.4 130.45 1325.2 113.55 1316.8C96.65 1308.3 83.5 1296.25 74.1 1280.65C64.7 1264.95 60 1246.3 60 1224.7C60 1203.1 64.7 1184.5 74.1 1168.9C83.5 1153.2 96.65 1141.15 113.55 1132.75C130.45 1124.25 150.1 1120 172.5 1120C194.9 1120 214.55 1124.25 231.45 1132.75C248.35 1141.15 261.5 1153.2 270.9 1168.9C280.3 1184.5 285 1203.1 285 1224.7ZM246.6 1224.7C246.8 1211 243.85 1199.6 237.75 1190.5C231.65 1181.4 223 1174.6 211.8 1170.1C200.6 1165.5 187.5 1163.2 172.5 1163.2C157.5 1163.2 144.5 1165.5 133.5 1170.1C122.5 1174.6 113.95 1181.4 107.85 1190.5C101.75 1199.6 98.6 1211 98.4 1224.7C98.2 1238.4 101.15 1249.8 107.25 1258.9C113.35 1268 122 1274.85 133.2 1279.45C144.4 1283.95 157.5 1286.2 172.5 1286.2C187.5 1286.2 200.5 1283.95 211.5 1279.45C222.5 1274.85 231.05 1268 237.15 1258.9C243.25 1249.8 246.4 1238.4 246.6 1224.7ZM280.5 1087.05H64.5L64.5 1046.25H242.4L242.4 953.254H280.5V1087.05ZM285 839.849C285 857.249 281.5 872.549 274.5 885.749C267.4 898.949 257.45 909.249 244.65 916.649C231.85 924.049 216.8 927.749 199.5 927.749H64.8L64.5 886.349H199.2C206.3 886.349 212.75 885.149 218.55 882.749C224.35 880.349 229.35 877.049 233.55 872.849C237.75 868.549 241 863.599 243.3 857.999C245.5 852.299 246.6 846.249 246.6 839.849C246.6 833.249 245.45 827.149 243.15 821.549C240.85 815.849 237.6 810.899 233.4 806.699C229.2 802.499 224.2 799.249 218.4 796.949C212.6 794.549 206.2 793.349 199.2 793.349H64.5L64.5 751.949H199.5C216.8 751.949 231.85 755.649 244.65 763.049C257.45 770.449 267.4 780.749 274.5 793.949C281.5 807.149 285 822.449 285 839.849ZM280.5 659.973H102.6L102.6 728.073L64.5 728.073L64.5 551.073H102.6V619.173H280.5V659.973ZM280.5 523.968H64.5L64.5 483.168H280.5V523.968ZM285 345.498C285 367.098 280.3 385.748 270.9 401.448C261.5 417.048 248.35 429.098 231.45 437.598C214.55 445.998 194.9 450.198 172.5 450.198C150.1 450.198 130.45 445.998 113.55 437.598C96.65 429.098 83.5 417.048 74.1 401.448C64.7 385.748 60 367.098 60 345.498C60 323.898 64.7 305.298 74.1 289.698C83.5 273.998 96.65 261.948 113.55 253.548C130.45 245.048 150.1 240.798 172.5 240.798C194.9 240.798 214.55 245.048 231.45 253.548C248.35 261.948 261.5 273.998 270.9 289.698C280.3 305.298 285 323.898 285 345.498ZM246.6 345.498C246.8 331.798 243.85 320.398 237.75 311.298C231.65 302.198 223 295.398 211.8 290.898C200.6 286.298 187.5 283.998 172.5 283.998C157.5 283.998 144.5 286.298 133.5 290.898C122.5 295.398 113.95 302.198 107.85 311.298C101.75 320.398 98.6 331.798 98.4 345.498C98.2 359.198 101.15 370.598 107.25 379.698C113.35 388.798 122 395.648 133.2 400.248C144.4 404.748 157.5 406.998 172.5 406.998C187.5 406.998 200.5 404.748 211.5 400.248C222.5 395.648 231.05 388.798 237.15 379.698C243.25 370.598 246.4 359.198 246.6 345.498ZM280.5 210.855H64.5L64.5 169.455L208.5 75.5547L64.5 75.5547L64.5 34.1547L280.5 34.1547L280.5 75.5547L136.5 169.455L280.5 169.455V210.855ZM285 -89.3C285 -73.3 282.2 -58.85 276.6 -45.95C270.9 -33.15 262.8 -22.6 252.3 -14.3C241.7 -6.09999 229.1 -0.899982 214.5 1.30002L208.2 -41.3C220.6 -44.3 230.15 -50.5 236.85 -59.9C243.55 -69.3 246.9 -80 246.9 -92C246.9 -98.7 245.85 -105.2 243.75 -111.5C241.65 -117.8 238.55 -122.95 234.45 -126.95C230.35 -131.05 225.3 -133.1 219.3 -133.1C217.1 -133.1 215 -132.75 213 -132.05C210.9 -131.45 208.95 -130.4 207.15 -128.9C205.35 -127.4 203.65 -125.25 202.05 -122.45C200.45 -119.75 199 -116.3 197.7 -112.1L181.2 -56C180 -51.8 178.3 -46.9 176.1 -41.3C173.9 -35.8 170.75 -30.45 166.65 -25.25C162.55 -20.05 157.15 -15.7 150.45 -12.2C143.65 -8.79998 135.1 -7.09999 124.8 -7.09999C110.3 -7.09999 98.25 -10.75 88.65 -18.05C79.05 -25.35 71.9 -35.1 67.2 -47.3C62.5 -59.5 60.2 -73 60.3 -87.8C60.5 -102.7 63.05 -116 67.95 -127.7C72.85 -139.4 80 -149.2 89.4 -157.1C98.7 -165 110.1 -170.7 123.6 -174.2L131.1 -130.1C124.1 -128.5 118.2 -125.55 113.4 -121.25C108.6 -116.95 104.95 -111.8 102.45 -105.8C99.95 -99.9 98.6 -93.7 98.4 -87.2C98.2 -80.8 99.1 -74.75 101.1 -69.05C103 -63.45 105.8 -58.85 109.5 -55.25C113.2 -51.75 117.6 -50 122.7 -50C127.4 -50 131.25 -51.45 134.25 -54.35C137.15 -57.25 139.5 -60.9 141.3 -65.3C143.1 -69.7 144.6 -74.2 145.8 -78.8L156 -116.3C157.5 -121.9 159.5 -128.1 162 -134.9C164.4 -141.7 167.8 -148.2 172.2 -154.4C176.5 -160.7 182.2 -165.85 189.3 -169.85C196.4 -173.95 205.4 -176 216.3 -176C227.9 -176 238.05 -173.55 246.75 -168.65C255.35 -163.85 262.5 -157.35 268.2 -149.15C273.8 -140.95 278 -131.65 280.8 -121.25C283.6 -110.95 285 -100.3 285 -89.3Z" stroke="white" stroke-opacity="0.1" stroke-width="2" mask="url(#path-1-outside-1_20_124)"/>
</g>
<defs>
<clipPath id="clip0_20_124">
<rect width="1920" height="1503" fill="white"/>
</clipPath>
</defs>
</svg>
